# xmcd
#
# Track frame offsets:
#	150
#	18838
#	38537
#	58841
#	74085
#	93501
#	109140
#	127401
#	145302
#	167045
#	185256
#	204023
#	220574
#	238202
#	258652
#	276321
#	306935
#
# Disc length: 4100 seconds
#
# Revision: 0
# Processed by: cddbd v1.5.2PL0 Copyright (c) Steve Scherf et al.
# Submitted via: audiograbber 1.83.01
#
DISCID=03100211
DTITLE=Various Artist - MIXED COUNTRY FUNPACK DISC 2
DYEAR=1900
DGENRE=Country
TTITLE0=SARA EVANS - PERFECT
TTITLE1=BROOKS&DUNN - RED DIRT ROAD
TTITLE2=ALAN JACKSON - REMEMBER WHEN
TTITLE3=JOE NICHOLS - SHE ONLY SMOKES WHEN SHE DRINKS
TTITLE4=TIM MCGRAW - SHE'S MY KIND OF RAIN
TTITLE5=GEORGE STRAIT - TELL ME SOMETHING BAD ABOUT TULSA
TTITLE6=MARTINA MCBRIDE - THIS ONE'S FOR THE GIRLS
TTITLE7=GARY ALLAN - TOUGH LITTLE BOYS
TTITLE8=DIXIE CHICKS - TRAVELLIN' SOLDIER
TTITLE9=LONESTAR - WALKIN' IN MEMPHIS
TTITLE10=PAT GREEN - WAVE ON WAVE
TTITLE11=WYNONNA - WHAT THE WORLD NEEDS
TTITLE12=DIERKS BENTLEY - WHAT WAS I THINKIN'
TTITLE13=MARTINA MCBRIDE - WHERE WOULD YOU BE
TTITLE14=KEITH URBAN - YOU LOOK GOOD IN MY SHIRT
TTITLE15=VINCE GILL  - YOUNG MAN'S TOWN
TTITLE16=DATA TRACK - Data Track
EXTD=TTFP-81&82-V3\nVOLUME 2
EXTT0=
EXTT1=
EXTT2=
EXTT3=
EXTT4=
EXTT5=
EXTT6=
EXTT7=
EXTT8=
EXTT9=
EXTT10=
EXTT11=
EXTT12=
EXTT13=
EXTT14=
EXTT15=
EXTT16=
PLAYORDER=
